HIERARCHY
ROOT hip
{
	OFFSET 0.000000 0.000000 0.000000 
	CHANNELS 6 Xposition Yposition Zposition Xrotation Zrotation Yrotation
	JOINT abdomen
	{
		OFFSET 0.000000 3.402643 0.000000 
		CHANNELS 3 Xrotation Zrotation Yrotation
		JOINT chest
		{
			OFFSET 0.000000 8.438565 -0.680529 
			CHANNELS 3 Xrotation Zrotation Yrotation
			JOINT neck
			{
				OFFSET 0.000000 10.207942 -0.272212 
				CHANNELS 3 Xrotation Zrotation Yrotation
				JOINT head
				{
					OFFSET 0.000000 3.130431 0.000000 
					CHANNELS 3 Xrotation Zrotation Yrotation
					End Site
					{
						OFFSET 0.000000 3.130435 0.000000 
					}
				}
			}
			JOINT lCollar
			{
				OFFSET 3.470700 6.669187 -0.816635 
				CHANNELS 3 Yrotation Zrotation Xrotation
				JOINT lShldr
				{
					OFFSET 3.198488 0.000000 0.000000 
					CHANNELS 3 Zrotation Yrotation Xrotation
					JOINT lForeArm
					{
						OFFSET 10.139888 0.000000 0.000000 
						CHANNELS 3 Yrotation Zrotation Xrotation
						JOINT lHand
						{
							OFFSET 8.370511 0.000000 0.000000 
							CHANNELS 3 Zrotation Yrotation Xrotation
							End Site
							{
								OFFSET 4.083176 0.000000 0.000000 
							}
						}
					}
				}
			}
			JOINT rCollar
			{
				OFFSET -3.470700 6.669187 -0.816635 
				CHANNELS 3 Yrotation Zrotation Xrotation
				JOINT rShldr
				{
					OFFSET -3.198488 0.000000 0.000000 
					CHANNELS 3 Zrotation Yrotation Xrotation
					JOINT rForeArm
					{
						OFFSET -10.139888 0.000000 0.000000 
						CHANNELS 3 Yrotation Zrotation Xrotation
						JOINT rHand
						{
							OFFSET -8.370511 0.000000 0.000000 
							CHANNELS 3 Zrotation Yrotation Xrotation
							End Site
							{
								OFFSET -4.083176 0.000000 0.000000 
							}
						}
					}
				}
			}
		}
	}
	JOINT lThigh
	{
		OFFSET 5.308129 -1.633274 1.361059 
		CHANNELS 3 Xrotation Zrotation Yrotation
		JOINT lShin
		{
			OFFSET -2.041588 -20.007561 0.000000 
			CHANNELS 3 Xrotation Zrotation Yrotation
			JOINT lFoot
			{
				OFFSET 0.000000 -19.190928 -1.224953 
				CHANNELS 3 Xrotation Yrotation Zrotation
				End Site
				{
					OFFSET 0.000000 -2.449906 4.627600 
				}
			}
		}
	}
	JOINT rThigh
	{
		OFFSET -5.308129 -1.633274 1.361059 
		CHANNELS 3 Xrotation Zrotation Yrotation
		JOINT rShin
		{
			OFFSET 2.041588 -20.007561 0.000000 
			CHANNELS 3 Xrotation Zrotation Yrotation
			JOINT rFoot
			{
				OFFSET 0.000000 -19.190928 -1.224953 
				CHANNELS 3 Xrotation Yrotation Zrotation
				End Site
				{
					OFFSET 0.000000 -2.449906 4.627600 
				}
			}
		}
	}
}
MOTION
Frames: 6
Frame Time: 0.033333
-3.477546 33.996006 -45.719498 7.482582 -12.484072 48.293903 22.454317 0.762706 -1.427542 -20.839844 0.000000 0.000000 -5.220815 17.043688 -37.482162 -2.520832 -1.255077 0.218355 -4.754609 -0.109184 -0.002653 -107.333046 -43.573570 89.394501 -66.980446 0.211744 36.965969 11.286227 -13.733021 -1.161786 4.754609 0.109184 -0.002672 44.275444 27.315041 -20.093517 82.756180 1.756984 -77.685707 -16.166883 -5.802614 0.886027 -39.482594 50.047604 26.965364 67.842873 -2.557247 -8.967214 -19.113461 2.483657 -10.651849 -52.286785 -33.735386 1.320755 25.747572 3.035967 -6.397910 16.783541 1.634177 22.199251 
-3.581112 33.821873 -45.727119 7.190910 -12.065386 49.122749 22.492744 0.743927 -1.487992 -20.839844 0.000000 0.000000 -5.037921 16.096426 -37.471222 -2.520832 -1.255077 0.218355 -4.754609 -0.109184 -0.002653 -109.028427 -42.983582 91.479820 -66.011772 0.211809 37.058960 10.536924 -13.144271 -1.069149 4.754609 0.109184 -0.002672 44.830536 27.000265 -19.600245 82.379684 1.754517 -75.889557 -16.580622 -6.097997 0.954148 -39.922123 50.174839 26.700705 68.436325 -2.566246 -9.648386 -19.160526 2.387990 -10.395910 -52.599396 -34.370247 1.866827 27.223391 2.977749 -6.679561 16.537315 1.632179 22.909777 
-3.620202 33.763485 -45.705284 7.034268 -12.185766 49.444103 22.492971 0.746004 -1.466002 -20.839844 0.000000 0.000000 -5.504942 15.539380 -37.413208 -2.520832 -1.255077 0.218355 -4.754609 -0.109184 -0.002653 -109.435493 -42.310307 92.145081 -64.175194 0.219543 37.878490 12.342044 -14.158676 -1.359900 4.754609 0.109184 -0.002672 45.148239 27.204859 -19.760870 82.144112 1.760191 -76.237083 -17.036625 -6.461981 1.030583 -40.399353 50.391846 26.292950 68.583176 -2.575578 -9.935899 -19.276354 2.400160 -10.312772 -52.581303 -34.644371 0.922119 27.620590 2.996577 -6.297390 16.445829 1.637904 22.997494 
-3.649143 33.845226 -45.667698 6.999459 -12.002363 49.601418 22.522131 0.740421 -1.478787 -20.839844 0.000000 0.000000 -5.737249 14.919909 -37.318256 -2.520832 -1.255077 0.218355 -4.754609 -0.109184 -0.002653 -109.609604 -41.660465 92.149643 -63.684006 0.215508 37.348778 12.454844 -14.178761 -1.380524 4.754609 0.109184 -0.002672 44.895504 26.902258 -19.331303 81.860901 1.759924 -77.105804 -16.838139 -5.872909 0.942818 -40.077618 49.935749 26.074394 68.120499 -2.585624 -9.720449 -19.368546 2.504059 -10.766449 -52.262676 -34.636868 1.036618 27.483522 2.976789 -6.778448 16.602642 1.618894 22.615105 
-3.708034 33.950817 -45.660095 7.600846 -12.422642 49.233181 22.444494 0.732168 -1.429635 -20.839844 0.000000 0.000000 -5.789212 14.957400 -36.893677 -2.520832 -1.255077 0.218355 -4.754609 -0.109184 -0.002653 -110.200897 -42.182343 93.181000 -63.405178 0.199832 36.702000 12.686511 -12.642244 -1.267201 4.754609 0.109184 -0.002672 44.566364 27.339518 -19.678038 81.722923 1.763184 -77.534622 -16.774855 -6.039450 0.956260 -40.604473 49.437386 25.826256 67.621246 -2.555271 -9.140029 -19.100933 2.548456 -11.037938 -52.743294 -34.198792 2.162954 26.580997 2.919766 -8.002010 17.116209 1.674365 22.997358 
-3.720215 34.074703 -45.644363 7.852360 -12.793104 49.049614 22.356548 0.800353 -1.444098 -20.839844 0.000000 0.000000 -6.173896 15.150537 -36.892357 -2.520832 -1.255077 0.218355 -4.754609 -0.109184 -0.002653 -109.918297 -42.796207 93.391144 -63.558983 0.186268 35.768166 12.685533 -14.228112 -1.397713 4.754609 0.109184 -0.002672 45.314007 27.483671 -19.632906 82.068581 1.745004 -72.946075 -17.612091 -6.581028 1.085657 -40.937653 49.208218 25.617830 67.159241 -2.546365 -8.624360 -18.933704 2.556540 -11.153082 -52.468212 -34.041439 1.276376 25.421089 2.961948 -7.691288 17.745615 1.759358 22.360075 
